<svg version="1.2" xmlns="http://www.w3.org/2000/svg" viewBox="0 0 115 88" width="115" height="88">
	<title>tariff_target-svg</title>
	<style>
		.s0 { fill: #303646 } 
		.s1 { fill: #ffffff } 
		.s2 { fill: #cd2b31 } 
		.s3 { fill: #bab3b4 } 
		.s4 { opacity: .1;fill: #1f1f39 } 
		.s5 { opacity: .2;fill: #1f1f39 } 
		.s6 { fill: #543237 } 
		.s7 { opacity: .5;fill: #1f1f39 } 
	</style>
	<path class="s0" d="m90.6 51.6c6.1-19.9 4.7-38.1-3.1-40.5-7.9-2.4-19.2 11.8-25.3 31.8-6.2 20-4.8 38.1 3.1 40.5 7.9 2.4 19.2-11.8 25.3-31.8z"/>
	<path class="s1" d="m88.3 50.9c6.1-20 5.2-38-2.1-40.2-7.3-2.2-18.2 12.1-24.3 32.1-6.2 20-5.2 38 2.1 40.2 7.3 2.2 18.1-12.1 24.3-32.1z"/>
	<path class="s2" d="m86.1 50.2c5.4-17.6 4.6-33.5-1.9-35.5-6.4-2-16 10.7-21.5 28.4-5.4 17.6-4.5 33.5 1.9 35.5 6.4 2 16.1-10.7 21.5-28.4z"/>
	<path class="s1" d="m83.3 49.4c4.4-14.4 3.8-27.3-1.5-28.9-5.2-1.7-13.1 8.7-17.5 23.1-4.4 14.3-3.7 27.3 1.6 28.9 5.2 1.6 13-8.8 17.4-23.1z"/>
	<path class="s2" d="m81.6 48.1c3.5-11.7 3-22.2-1.3-23.5-4.2-1.3-10.6 7.1-14.2 18.7-3.6 11.7-3 22.2 1.3 23.5 4.2 1.3 10.6-7 14.2-18.7z"/>
	<path class="s1" d="m77.8 47.7c2.4-7.8 2.1-14.8-0.8-15.7-2.8-0.9-7.1 4.7-9.5 12.5-2.4 7.8-2 14.9 0.8 15.7 2.9 0.9 7.1-4.7 9.5-12.5z"/>
	<path class="s2" d="m76 46.4c1.2-4 1-7.5-0.4-8-1.5-0.4-3.6 2.4-4.8 6.4-1.2 3.9-1.1 7.5 0.4 7.9 1.4 0.4 3.6-2.4 4.8-6.3z"/>
	<path class="s3" d="m68.7 40.8c-0.9 1.1-3.5 4.1-3.4 4.6 0 0.5 3.4-0.5 3.5-1.4 0.2-0.8-0.1-3.2-0.1-3.2z"/>
	<path class="s1" d="m6.9 12.4c0.3-0.1 4.2-1.5 5-1.3q0.9 0.3 1.6 0.9c-2.5 1.3-4 2-5.2 1.4-0.6-0.3-1-0.5-1.3-0.7-0.2-0.1-0.3-0.2-0.1-0.3z"/>
	<path class="s4" d="m6.9 12.4c0.3-0.1 4.2-1.5 5-1.3-0.2 0.5-3.5 2.2-4.9 1.6-0.2-0.1-0.3-0.2-0.1-0.3z"/>
	<path class="s1" d="m5.4 11.5c0.3-0.1 4.2-1.5 5-1.3q1 0.3 1.6 0.9c-2.5 1.3-4 2.1-5.2 1.4-0.6-0.3-1-0.6-1.3-0.7-0.2-0.1-0.3-0.2-0.1-0.3z"/>
	<path class="s4" d="m5.4 11.5c0.3-0.1 4.2-1.5 5-1.3-0.2 0.5-2 1.7-4.9 1.6q-0.3-0.2-0.1-0.3z"/>
	<path class="s1" d="m3.7 10.5q1-0.1 1.9-0.5c1.3-0.5 2.7-1 3.1-0.9q1 0.4 1.7 1.1c-2.5 1.3-4.1 1.9-5.3 1.2-0.6-0.3-1-0.5-1.3-0.7h-0.1q-0.2-0.2 0-0.2z"/>
	<path class="s4" d="m3.7 10.5q1-0.1 1.9-0.5c1.3-0.5 2.7-0.9 3.2-0.8-0.3 0.5-2.7 1.5-4.9 1.6l-0.2-0.1q-0.2-0.2 0-0.2z"/>
	<path class="s1" d="m2 9.4c0.3-0.1 4.2-1.5 5-1.3q1 0.3 1.7 1c-2.5 1.3-4.1 1.9-5.3 1.3-0.6-0.4-1-0.6-1.3-0.7-0.2-0.2-0.3-0.2-0.1-0.3z"/>
	<path class="s5" d="m2 9.4c0.3-0.1 4.2-1.5 5-1.3-0.2 0.5-3 0.8-4.9 1.6-0.2-0.2-0.3-0.2-0.1-0.3z"/>
	<path class="s6" d="m5.9 7.1q0.1 0.4 0.4 0.7c1.2 1 61.1 37.2 61.2 37.4q0.1 0 0.2 0 0.2 0 0.3-0.1c0.5-0.3 1.1-1 0.5-1.6q-0.1-0.1-0.2-0.1c0 0-59.6-37.2-60.8-37.4-0.9-0.1-1.9 0.4-1.6 1.1z"/>
	<path class="s1" d="m11.8 4.3c0 0.3 0.6 4.4 1.1 5.1q0.7 0.7 1.5 1c0-2.8 0-4.5-1.1-5.2-0.5-0.4-0.9-0.7-1.2-0.9-0.2-0.1-0.3-0.2-0.3 0z"/>
	<path class="s4" d="m11.8 4.3c0 0.3 0.6 4.4 1.1 5.1 0.4-0.4 0.4-4.2-0.8-5.1q-0.3-0.2-0.3 0z"/>
	<path class="s1" d="m10.3 3.4c0 0.3 0.6 4.4 1.1 5.1q0.7 0.7 1.6 1c0-2.8-0.1-4.6-1.2-5.3-0.5-0.4-0.9-0.7-1.2-0.8-0.2-0.2-0.3-0.2-0.3 0z"/>
	<path class="s4" d="m10.3 3.4c0 0.3 0.6 4.4 1.1 5.1 0.4-0.5 0.6-2.6-0.8-5.1q-0.3-0.3-0.3 0z"/>
	<path class="s1" d="m8.6 2.3q0.4 0.9 0.5 1.9 0 0.1 0 0.1c0.1 1.4 0.3 2.8 0.6 3.1q0.7 0.8 1.7 1.1c0-2.8-0.2-4.6-1.3-5.3-0.6-0.4-1-0.7-1.2-0.9h-0.1q-0.2-0.2-0.2 0z"/>
	<path class="s4" d="m8.6 2.3q0.4 0.9 0.5 1.9 0 0.1 0 0.1c0.1 1.4 0.4 2.8 0.6 3.2 0.4-0.5 0.2-3.2-0.8-5.1l-0.1-0.1q-0.2-0.2-0.2 0z"/>
	<path class="s1" d="m6.9 1.3c0 0.3 0.5 4.4 1.1 5.1q0.7 0.7 1.7 1c0-2.7-0.2-4.5-1.3-5.3-0.6-0.3-1-0.6-1.2-0.8-0.3-0.1-0.3-0.2-0.3 0z"/>
	<path class="s5" d="m6.9 1.3c0 0.3 0.5 4.4 1.1 5.1 0.3-0.4-0.6-3.1-0.8-5.1q-0.3-0.2-0.3 0z"/>
	<path class="s7" d="m5.9 7.1q0.1 0.4 0.4 0.7c1.2 1 61.1 37.2 61.2 37.4 0.1 0.1 0.3 0 0.5-0.1-7-4.5-56.6-34.8-62.1-38z"/>
	<path class="s1" d="m65.1 45.6c-0.1 0.7 7.5 2.1 8.1 1.7h0.1c0.4-0.5-4.3-6.6-4.6-6.5-0.4 0.1-0.6 2.3-1.1 3.3h-0.1c-0.5 0.9-2.4 1-2.4 1.5z"/>
	<path class="s5" d="m65.1 45.6c-0.1 0.7 7.5 2.1 8.1 1.7-2.2-1.8-4.4-2.9-5.7-3.2-0.5 0.9-2.4 1-2.4 1.5z"/>
</svg>